<svg id="mermaid-0" width="370.109375" height="778" xmlns="http://www.w3.org/2000/svg" xmlns:xlink="http://www.w3.org/1999/xlink" class="statediagram" style="max-width: 370.109375px;" viewBox="0 0 370.109375 778" role="graphics-document document" aria-roledescription="stateDiagram"><style>#mermaid-0{font-family:ui-sans-serif,system-ui,-apple-system,Segoe UI,Roboto,sans-serif;font-size:16px;fill:#333;}@keyframes edge-animation-frame{from{stroke-dashoffset:0;}}@keyframes dash{to{stroke-dashoffset:0;}}#mermaid-0 .edge-animation-slow{stroke-dasharray:9,5!important;stroke-dashoffset:900;animation:dash 50s linear infinite;stroke-linecap:round;}#mermaid-0 .edge-animation-fast{stroke-dasharray:9,5!important;stroke-dashoffset:900;animation:dash 20s linear infinite;stroke-linecap:round;}#mermaid-0 .error-icon{fill:hsl(220.5882352941, 100%, 98.3333333333%);}#mermaid-0 .error-text{fill:rgb(8.5000000002, 5.7500000001, 0);stroke:rgb(8.5000000002, 5.7500000001, 0);}#mermaid-0 .edge-thickness-normal{stroke-width:1px;}#mermaid-0 .edge-thickness-thick{stroke-width:3.5px;}#mermaid-0 .edge-pattern-solid{stroke-dasharray:0;}#mermaid-0 .edge-thickness-invisible{stroke-width:0;fill:none;}#mermaid-0 .edge-pattern-dashed{stroke-dasharray:3;}#mermaid-0 .edge-pattern-dotted{stroke-dasharray:2;}#mermaid-0 .marker{fill:#344054;stroke:#344054;}#mermaid-0 .marker.cross{stroke:#344054;}#mermaid-0 svg{font-family:ui-sans-serif,system-ui,-apple-system,Segoe UI,Roboto,sans-serif;font-size:16px;}#mermaid-0 p{margin:0;}#mermaid-0 defs [id$="-barbEnd"]{fill:#344054;stroke:#344054;}#mermaid-0 g.stateGroup text{fill:hsl(40.5882352941, 60%, 83.3333333333%);stroke:none;font-size:10px;}#mermaid-0 g.stateGroup text{fill:#333;stroke:none;font-size:10px;}#mermaid-0 g.stateGroup .state-title{font-weight:bolder;fill:#333;}#mermaid-0 g.stateGroup rect{fill:#fff4dd;stroke:hsl(40.5882352941, 60%, 83.3333333333%);}#mermaid-0 g.stateGroup line{stroke:#344054;stroke-width:1;}#mermaid-0 .transition{stroke:#344054;stroke-width:1;fill:none;}#mermaid-0 .stateGroup .composit{fill:#ffffff;border-bottom:1px;}#mermaid-0 .stateGroup .alt-composit{fill:#e0e0e0;border-bottom:1px;}#mermaid-0 .state-note{stroke:hsl(52.6829268293, 60%, 73.9215686275%);fill:#fff5ad;}#mermaid-0 .state-note text{fill:#333;stroke:none;font-size:10px;}#mermaid-0 .stateLabel .box{stroke:none;stroke-width:0;fill:#fff4dd;opacity:0.5;}#mermaid-0 .edgeLabel .label rect{fill:#fff4dd;opacity:0.5;}#mermaid-0 .edgeLabel{background-color:hsl(-79.4117647059, 100%, 93.3333333333%);text-align:center;}#mermaid-0 .edgeLabel p{background-color:hsl(-79.4117647059, 100%, 93.3333333333%);}#mermaid-0 .edgeLabel rect{opacity:0.5;background-color:hsl(-79.4117647059, 100%, 93.3333333333%);fill:hsl(-79.4117647059, 100%, 93.3333333333%);}#mermaid-0 .edgeLabel .label text{fill:#333;}#mermaid-0 .label div .edgeLabel{color:#333;}#mermaid-0 .stateLabel text{fill:#333;font-size:10px;font-weight:bold;}#mermaid-0 .node circle.state-start{fill:#344054;stroke:#344054;}#mermaid-0 .node .fork-join{fill:#344054;stroke:#344054;}#mermaid-0 .node circle.state-end{fill:hsl(40.5882352941, 60%, 83.3333333333%);stroke:#ffffff;stroke-width:1.5;}#mermaid-0 .end-state-inner{fill:#ffffff;stroke-width:1.5;}#mermaid-0 .node rect{fill:#fff4dd;stroke:hsl(40.5882352941, 60%, 83.3333333333%);stroke-width:1px;}#mermaid-0 .node polygon{fill:#fff4dd;stroke:hsl(40.5882352941, 60%, 83.3333333333%);stroke-width:1px;}#mermaid-0 [id$="-barbEnd"]{fill:#344054;}#mermaid-0 .statediagram-cluster rect{fill:#fff4dd;stroke:hsl(40.5882352941, 60%, 83.3333333333%);stroke-width:1px;}#mermaid-0 .cluster-label,#mermaid-0 .nodeLabel{color:#333;}#mermaid-0 .statediagram-cluster rect.outer{rx:5px;ry:5px;}#mermaid-0 .statediagram-state .divider{stroke:hsl(40.5882352941, 60%, 83.3333333333%);}#mermaid-0 .statediagram-state .title-state{rx:5px;ry:5px;}#mermaid-0 .statediagram-cluster.statediagram-cluster .inner{fill:#ffffff;}#mermaid-0 .statediagram-cluster.statediagram-cluster-alt .inner{fill:hsl(220.5882352941, 100%, 98.3333333333%);}#mermaid-0 .statediagram-cluster .inner{rx:0;ry:0;}#mermaid-0 .statediagram-state rect.basic{rx:5px;ry:5px;}#mermaid-0 .statediagram-state rect.divider{stroke-dasharray:10,10;fill:hsl(220.5882352941, 100%, 98.3333333333%);}#mermaid-0 .note-edge{stroke-dasharray:5;}#mermaid-0 .statediagram-note rect{fill:#fff5ad;stroke:hsl(52.6829268293, 60%, 73.9215686275%);stroke-width:1px;rx:0;ry:0;}#mermaid-0 .statediagram-note rect{fill:#fff5ad;stroke:hsl(52.6829268293, 60%, 73.9215686275%);stroke-width:1px;rx:0;ry:0;}#mermaid-0 .statediagram-note text{fill:#333;}#mermaid-0 .statediagram-note .nodeLabel{color:#333;}#mermaid-0 .statediagram .edgeLabel{color:red;}#mermaid-0 [id$="-dependencyStart"],#mermaid-0 [id$="-dependencyEnd"]{fill:#344054;stroke:#344054;stroke-width:1;}#mermaid-0 .statediagramTitleText{text-anchor:middle;font-size:18px;fill:#333;}#mermaid-0 [data-look="neo"].statediagram-cluster rect{fill:#fff4dd;stroke:url(#mermaid-0-gradient);stroke-width:1;}#mermaid-0 [data-look="neo"].statediagram-cluster rect.outer{rx:5px;ry:5px;filter:drop-shadow( 1px 2px 2px rgba(185,185,185,1));}#mermaid-0 .node .neo-node{stroke:hsl(40.5882352941, 60%, 83.3333333333%);}#mermaid-0 [data-look="neo"].node rect,#mermaid-0 [data-look="neo"].cluster rect,#mermaid-0 [data-look="neo"].node polygon{stroke:url(#mermaid-0-gradient);filter:drop-shadow( 1px 2px 2px rgba(185,185,185,1));}#mermaid-0 [data-look="neo"].node path{stroke:url(#mermaid-0-gradient);stroke-width:1px;}#mermaid-0 [data-look="neo"].node .outer-path{filter:drop-shadow( 1px 2px 2px rgba(185,185,185,1));}#mermaid-0 [data-look="neo"].node .neo-line path{stroke:hsl(40.5882352941, 60%, 83.3333333333%);filter:none;}#mermaid-0 [data-look="neo"].node circle{stroke:url(#mermaid-0-gradient);filter:drop-shadow( 1px 2px 2px rgba(185,185,185,1));}#mermaid-0 [data-look="neo"].node circle .state-start{fill:#000000;}#mermaid-0 [data-look="neo"].icon-shape .icon{fill:url(#mermaid-0-gradient);filter:drop-shadow( 1px 2px 2px rgba(185,185,185,1));}#mermaid-0 [data-look="neo"].icon-shape .icon-neo path{stroke:url(#mermaid-0-gradient);filter:drop-shadow( 1px 2px 2px rgba(185,185,185,1));}#mermaid-0 :root{--mermaid-font-family:arial,sans-serif;}#mermaid-0 .plan&gt;*{fill:rgb(238, 244, 255)!important;stroke:rgb(53, 56, 205)!important;stroke-width:2px!important;color:rgb(53, 56, 205)!important;}#mermaid-0 .plan span{fill:rgb(238, 244, 255)!important;stroke:rgb(53, 56, 205)!important;stroke-width:2px!important;color:rgb(53, 56, 205)!important;}#mermaid-0 .plan tspan{fill:rgb(53, 56, 205)!important;}#mermaid-0 .build&gt;*{fill:rgb(236, 253, 243)!important;stroke:rgb(2, 122, 72)!important;stroke-width:2px!important;color:rgb(2, 122, 72)!important;}#mermaid-0 .build span{fill:rgb(236, 253, 243)!important;stroke:rgb(2, 122, 72)!important;stroke-width:2px!important;color:rgb(2, 122, 72)!important;}#mermaid-0 .build tspan{fill:rgb(2, 122, 72)!important;}#mermaid-0 .verify&gt;*{fill:rgb(244, 243, 255)!important;stroke:rgb(89, 37, 220)!important;stroke-width:2px!important;color:rgb(89, 37, 220)!important;}#mermaid-0 .verify span{fill:rgb(244, 243, 255)!important;stroke:rgb(89, 37, 220)!important;stroke-width:2px!important;color:rgb(89, 37, 220)!important;}#mermaid-0 .verify tspan{fill:rgb(89, 37, 220)!important;}</style><g><defs><marker id="mermaid-0_stateDiagram-barbEnd" refX="19" refY="7" markerWidth="20" markerHeight="14" markerUnits="userSpaceOnUse" orient="auto"><path d="M 19,7 L9,13 L14,7 L9,1 Z"/></marker></defs><g class="root"><g class="clusters"/><g class="edgePaths"><path d="M176.341,19.199L170.16,23.832C163.98,28.466,151.619,37.733,145.438,49.866C139.258,62,139.258,77,139.258,94C139.258,111,139.258,130,143.876,145.667C148.493,161.333,157.729,173.667,162.347,179.833L166.965,186" id="mermaid-0-edge0" class="edge-thickness-normal edge-pattern-solid transition" style="fill:none;;;fill:none" data-edge="true" data-et="edge" data-id="edge0" data-points="W3sieCI6MTc2LjM0MDYwNjc0OTgzNywieSI6MTkuMTk4OTMzNzg4MzUzMTh9LHsieCI6MTM5LjI1NzgxMjUsInkiOjQ3fSx7IngiOjEzOS4yNTc4MTI1LCJ5Ijo5Mn0seyJ4IjoxMzkuMjU3ODEyNSwieSI6MTQ5fSx7IngiOjE2Ni45NjQ3MDY2ODg1OTY1LCJ5IjoxODZ9XQ==" data-look="classic" marker-end="url(#mermaid-0_stateDiagram-barbEnd)"/><path d="M187.542,19.199L193.723,23.832C199.903,28.466,212.264,37.733,218.445,46.533C224.625,55.333,224.625,63.667,224.625,67.833L224.625,72" id="mermaid-0-edge1" class="edge-thickness-normal edge-pattern-solid transition" style="fill:none;;;fill:none" data-edge="true" data-et="edge" data-id="edge1" data-points="W3sieCI6MTg3LjU0MjIwNTc1MDE2MywieSI6MTkuMTk4OTMzNzg4MzUzMTh9LHsieCI6MjI0LjYyNSwieSI6NDd9LHsieCI6MjI0LjYyNSwieSI6NzJ9XQ==" data-look="classic" marker-end="url(#mermaid-0_stateDiagram-barbEnd)"/><path d="M224.625,112L224.625,118.167C224.625,124.333,224.625,136.667,220.007,149C215.389,161.333,206.154,173.667,201.536,179.833L196.918,186" id="mermaid-0-edge2" class="edge-thickness-normal edge-pattern-solid transition" style="fill:none;;;fill:none" data-edge="true" data-et="edge" data-id="edge2" data-points="W3sieCI6MjI0LjYyNSwieSI6MTEyfSx7IngiOjIyNC42MjUsInkiOjE0OX0seyJ4IjoxOTYuOTE4MTA1ODExNDAzNSwieSI6MTg2fV0=" data-look="classic" marker-end="url(#mermaid-0_stateDiagram-barbEnd)"/><path d="M181.941,226L181.941,232.167C181.941,238.333,181.941,250.667,181.941,263C181.941,275.333,181.941,287.667,181.941,293.833L181.941,300" id="mermaid-0-edge3" class="edge-thickness-normal edge-pattern-solid transition" style="fill:none;;;fill:none" data-edge="true" data-et="edge" data-id="edge3" data-points="W3sieCI6MTgxLjk0MTQwNjI1LCJ5IjoyMjZ9LHsieCI6MTgxLjk0MTQwNjI1LCJ5IjoyNjN9LHsieCI6MTgxLjk0MTQwNjI1LCJ5IjozMDB9XQ==" data-look="classic" marker-end="url(#mermaid-0_stateDiagram-barbEnd)"/><path d="M181.941,340L181.941,346.167C181.941,352.333,181.941,364.667,181.941,377C181.941,389.333,181.941,401.667,181.941,407.833L181.941,414" id="mermaid-0-edge4" class="edge-thickness-normal edge-pattern-solid transition" style="fill:none;;;fill:none" data-edge="true" data-et="edge" data-id="edge4" data-points="W3sieCI6MTgxLjk0MTQwNjI1LCJ5IjozNDB9LHsieCI6MTgxLjk0MTQwNjI1LCJ5IjozNzd9LHsieCI6MTgxLjk0MTQwNjI1LCJ5Ijo0MTR9XQ==" data-look="classic" marker-end="url(#mermaid-0_stateDiagram-barbEnd)"/><path d="M210.071,454L218.744,460.167C227.417,466.333,244.763,478.667,253.436,491C262.109,503.333,262.109,515.667,262.109,521.833L262.109,528" id="mermaid-0-edge5" class="edge-thickness-normal edge-pattern-solid transition" style="fill:none;;;fill:none" data-edge="true" data-et="edge" data-id="edge5" data-points="W3sieCI6MjEwLjA3MDUxODA5MjEwNTI2LCJ5Ijo0NTR9LHsieCI6MjYyLjEwOTM3NSwieSI6NDkxfSx7IngiOjI2Mi4xMDkzNzUsInkiOjUyOH1d" data-look="classic" marker-end="url(#mermaid-0_stateDiagram-barbEnd)"/><path d="M153.812,454L145.139,460.167C136.466,466.333,119.12,478.667,110.447,494.333C101.773,510,101.773,529,101.773,550C101.773,571,101.773,594,111.262,613.667C120.75,633.333,139.727,649.667,149.216,657.833L158.704,666" id="mermaid-0-edge6" class="edge-thickness-normal edge-pattern-solid transition" style="fill:none;;;fill:none" data-edge="true" data-et="edge" data-id="edge6" data-points="W3sieCI6MTUzLjgxMjI5NDQwNzg5NDc0LCJ5Ijo0NTR9LHsieCI6MTAxLjc3MzQzNzUsInkiOjQ5MX0seyJ4IjoxMDEuNzczNDM3NSwieSI6NTQ4fSx7IngiOjEwMS43NzM0Mzc1LCJ5Ijo2MTd9LHsieCI6MTU4LjcwNDMxMzg1ODY5NTY2LCJ5Ijo2NjZ9XQ==" data-look="classic" marker-end="url(#mermaid-0_stateDiagram-barbEnd)"/><path d="M262.109,568L262.109,576.167C262.109,584.333,262.109,600.667,252.621,617C243.132,633.333,224.155,649.667,214.667,657.833L205.178,666" id="mermaid-0-edge7" class="edge-thickness-normal edge-pattern-solid transition" style="fill:none;;;fill:none" data-edge="true" data-et="edge" data-id="edge7" data-points="W3sieCI6MjYyLjEwOTM3NSwieSI6NTY4fSx7IngiOjI2Mi4xMDkzNzUsInkiOjYxN30seyJ4IjoyMDUuMTc4NDk4NjQxMzA0MzQsInkiOjY2Nn1d" data-look="classic" marker-end="url(#mermaid-0_stateDiagram-barbEnd)"/><path d="M181.941,706L181.941,710.167C181.941,714.333,181.941,722.667,181.941,730.999C181.941,739.331,181.941,747.662,181.941,751.828L181.941,755.993" id="mermaid-0-edge8" class="edge-thickness-normal edge-pattern-solid transition" style="fill:none;;;fill:none" data-edge="true" data-et="edge" data-id="edge8" data-points="W3sieCI6MTgxLjk0MTQwNjI1LCJ5Ijo3MDZ9LHsieCI6MTgxLjk0MTQwNjI1LCJ5Ijo3MzF9LHsieCI6MTgxLjk0MTQwNjI1LCJ5Ijo3NTUuOTkzMzUzMzY2ODUxOH1d" data-look="classic" marker-end="url(#mermaid-0_stateDiagram-barbEnd)"/></g><g class="edgeLabels"><g class="edgeLabel"><g class="label" data-id="edge0" transform="translate(0, 0)"><foreignObject width="0" height="0"><div xmlns="http://www.w3.org/1999/xhtml" class="labelBkg" style="display: table-cell; white-space: nowrap; line-height: 1.5; max-width: 200px; text-align: center;"><span class="edgeLabel"></span></div></foreignObject></g></g><g class="edgeLabel"><g class="label" data-id="edge1" transform="translate(0, 0)"><foreignObject width="0" height="0"><div xmlns="http://www.w3.org/1999/xhtml" class="labelBkg" style="display: table-cell; white-space: nowrap; line-height: 1.5; max-width: 200px; text-align: center;"><span class="edgeLabel"></span></div></foreignObject></g></g><g class="edgeLabel" transform="translate(224.625, 149)"><g class="label" data-id="edge2" transform="translate(-65.3671875, -12)"><foreignObject width="130.734375" height="24"><div xmlns="http://www.w3.org/1999/xhtml" class="labelBkg" style="display: table-cell; white-space: nowrap; line-height: 1.5; max-width: 200px; text-align: center;"><span class="edgeLabel"><p>dependency done</p></span></div></foreignObject></g></g><g class="edgeLabel" transform="translate(181.94140625, 263)"><g class="label" data-id="edge3" transform="translate(-60.8828125, -12)"><foreignObject width="121.765625" height="24"><div xmlns="http://www.w3.org/1999/xhtml" class="labelBkg" style="display: table-cell; white-space: nowrap; line-height: 1.5; max-width: 200px; text-align: center;"><span class="edgeLabel"><p>implement starts</p></span></div></foreignObject></g></g><g class="edgeLabel" transform="translate(181.94140625, 377)"><g class="label" data-id="edge4" transform="translate(-40.7265625, -12)"><foreignObject width="81.453125" height="24"><div xmlns="http://www.w3.org/1999/xhtml" class="labelBkg" style="display: table-cell; white-space: nowrap; line-height: 1.5; max-width: 200px; text-align: center;"><span class="edgeLabel"><p>tests green</p></span></div></foreignObject></g></g><g class="edgeLabel" transform="translate(262.109375, 491)"><g class="label" data-id="edge5" transform="translate(-67.9765625, -12)"><foreignObject width="135.953125" height="24"><div xmlns="http://www.w3.org/1999/xhtml" class="labelBkg" style="display: table-cell; white-space: nowrap; line-height: 1.5; max-width: 200px; text-align: center;"><span class="edgeLabel"><p>gates found issues</p></span></div></foreignObject></g></g><g class="edgeLabel" transform="translate(101.7734375, 548)"><g class="label" data-id="edge6" transform="translate(-93.7734375, -12)"><foreignObject width="187.546875" height="24"><div xmlns="http://www.w3.org/1999/xhtml" class="labelBkg" style="display: table-cell; white-space: nowrap; line-height: 1.5; max-width: 200px; text-align: center;"><span class="edgeLabel"><p>all gates pass, ships inline</p></span></div></foreignObject></g></g><g class="edgeLabel" transform="translate(262.109375, 617)"><g class="label" data-id="edge7" transform="translate(-100, -24)"><foreignObject width="200" height="48"><div xmlns="http://www.w3.org/1999/xhtml" class="labelBkg" style="display: table; white-space: break-spaces; line-height: 1.5; max-width: 200px; text-align: center; width: 200px;"><span class="edgeLabel"><p>findings resolved, ships inline</p></span></div></foreignObject></g></g><g class="edgeLabel"><g class="label" data-id="edge8" transform="translate(0, 0)"><foreignObject width="0" height="0"><div xmlns="http://www.w3.org/1999/xhtml" class="labelBkg" style="display: table-cell; white-space: nowrap; line-height: 1.5; max-width: 200px; text-align: center;"><span class="edgeLabel"></span></div></foreignObject></g></g></g><g class="nodes"><g class="node build statediagram-state" id="mermaid-0-state-in_progress-4" data-look="classic" transform="translate(181.94140625, 320)"><rect class="basic label-container" style="fill:#ecfdf3 !important;stroke:#027a48 !important;stroke-width:2px !important" rx="5" ry="5" x="-49.9140625" y="-20" width="99.828125" height="40"/><g class="label" style="color:#027a48 !important" transform="translate(-41.9140625, -12)"><rect/><foreignObject width="83.828125" height="24"><div style="color: rgb(2, 122, 72) !important; display: table-cell; white-space: nowrap; line-height: 1.5; max-width: 200px; text-align: center;" xmlns="http://www.w3.org/1999/xhtml"><span style="color:#027a48 !important" class="nodeLabel markdown-node-label"><p>in-progress</p></span></div></foreignObject></g></g><g class="node default" id="mermaid-0-state-root_start-1" data-look="classic" transform="translate(181.94140625, 15)"><circle class="state-start" r="7" width="14" height="14"/></g><g class="node plan statediagram-state" id="mermaid-0-state-todo-3" data-look="classic" transform="translate(181.94140625, 206)"><rect class="basic label-container" style="fill:#eef4ff !important;stroke:#3538cd !important;stroke-width:2px !important" rx="5" ry="5" x="-24.59375" y="-20" width="49.1875" height="40"/><g class="label" style="color:#3538cd !important" transform="translate(-16.59375, -12)"><rect/><foreignObject width="33.1875" height="24"><div style="color: rgb(53, 56, 205) !important; display: table-cell; white-space: nowrap; line-height: 1.5; max-width: 200px; text-align: center;" xmlns="http://www.w3.org/1999/xhtml"><span style="color:#3538cd !important" class="nodeLabel markdown-node-label"><p>todo</p></span></div></foreignObject></g></g><g class="node plan statediagram-state" id="mermaid-0-state-blocked-2" data-look="classic" transform="translate(224.625, 92)"><rect class="basic label-container" style="fill:#eef4ff !important;stroke:#3538cd !important;stroke-width:2px !important" rx="5" ry="5" x="-36.6796875" y="-20" width="73.359375" height="40"/><g class="label" style="color:#3538cd !important" transform="translate(-28.6796875, -12)"><rect/><foreignObject width="57.359375" height="24"><div style="color: rgb(53, 56, 205) !important; display: table-cell; white-space: nowrap; line-height: 1.5; max-width: 200px; text-align: center;" xmlns="http://www.w3.org/1999/xhtml"><span style="color:#3538cd !important" class="nodeLabel markdown-node-label"><p>blocked</p></span></div></foreignObject></g></g><g class="node verify statediagram-state" id="mermaid-0-state-implemented-6" data-look="classic" transform="translate(181.94140625, 434)"><rect class="basic label-container" style="fill:#f4f3ff !important;stroke:#5925dc !important;stroke-width:2px !important" rx="5" ry="5" x="-55.2265625" y="-20" width="110.453125" height="40"/><g class="label" style="color:#5925dc !important" transform="translate(-47.2265625, -12)"><rect/><foreignObject width="94.453125" height="24"><div style="color: rgb(89, 37, 220) !important; display: table-cell; white-space: nowrap; line-height: 1.5; max-width: 200px; text-align: center;" xmlns="http://www.w3.org/1999/xhtml"><span style="color:#5925dc !important" class="nodeLabel markdown-node-label"><p>implemented</p></span></div></foreignObject></g></g><g class="node verify statediagram-state" id="mermaid-0-state-review-7" data-look="classic" transform="translate(262.109375, 548)"><rect class="basic label-container" style="fill:#f4f3ff !important;stroke:#5925dc !important;stroke-width:2px !important" rx="5" ry="5" x="-31.5625" y="-20" width="63.125" height="40"/><g class="label" style="color:#5925dc !important" transform="translate(-23.5625, -12)"><rect/><foreignObject width="47.125" height="24"><div style="color: rgb(89, 37, 220) !important; display: table-cell; white-space: nowrap; line-height: 1.5; max-width: 200px; text-align: center;" xmlns="http://www.w3.org/1999/xhtml"><span style="color:#5925dc !important" class="nodeLabel markdown-node-label"><p>review</p></span></div></foreignObject></g></g><g class="node verify statediagram-state" id="mermaid-0-state-done-8" data-look="classic" transform="translate(181.94140625, 686)"><rect class="basic label-container" style="fill:#f4f3ff !important;stroke:#5925dc !important;stroke-width:2px !important" rx="5" ry="5" x="-26.2578125" y="-20" width="52.515625" height="40"/><g class="label" style="color:#5925dc !important" transform="translate(-18.2578125, -12)"><rect/><foreignObject width="36.515625" height="24"><div style="color: rgb(89, 37, 220) !important; display: table-cell; white-space: nowrap; line-height: 1.5; max-width: 200px; text-align: center;" xmlns="http://www.w3.org/1999/xhtml"><span style="color:#5925dc !important" class="nodeLabel markdown-node-label"><p>done</p></span></div></foreignObject></g></g><g class="node default" id="mermaid-0-state-root_end-8" data-look="classic" transform="translate(181.94140625, 763)"><g class="outer-path"><path d="M7 0 C7 0.40517908122283747, 6.964012880168563 0.816513743121899, 6.893654271085456 1.2155372436685123 C6.823295662002349 1.6145607442151257, 6.716427752933756 2.013397210557766, 6.5778483455013586 2.394141003279681 C6.439268938068961 2.7748847960015954, 6.26476736710249 3.149104622578984, 6.062177826491071 3.4999999999999996 C5.859588285879653 3.8508953774210153, 5.622755194947063 4.189128084166967, 5.362311101832846 4.499513267805774 C5.10186700871863 4.809898451444582, 4.809898451444583 5.10186700871863, 4.499513267805775 5.362311101832846 C4.189128084166968 5.622755194947063, 3.8508953774210166 5.859588285879652, 3.500000000000001 6.06217782649107 C3.149104622578985 6.264767367102489, 2.7748847960015963 6.439268938068961, 2.3941410032796817 6.5778483455013586 C2.013397210557767 6.716427752933756, 1.6145607442151264 6.823295662002349, 1.2155372436685128 6.893654271085456 C0.8165137431218992 6.964012880168563, 0.4051790812228379 7, 4.286263797015736e-16 7 C-0.405179081222837 7, -0.8165137431218985 6.964012880168563, -1.2155372436685121 6.893654271085456 C-1.6145607442151257 6.823295662002349, -2.0133972105577667 6.716427752933756, -2.394141003279681 6.5778483455013586 C-2.774884796001595 6.439268938068961, -3.149104622578983 6.26476736710249, -3.4999999999999982 6.062177826491071 C-3.8508953774210135 5.859588285879653, -4.189128084166966 5.6227551949470636, -4.499513267805773 5.362311101832848 C-4.809898451444581 5.101867008718632, -5.101867008718628 4.809898451444586, -5.3623111018328435 4.499513267805779 C-5.622755194947059 4.189128084166971, -5.859588285879649 3.8508953774210206, -6.062177826491068 3.5000000000000053 C-6.264767367102486 3.14910462257899, -6.439268938068958 2.774884796001602, -6.577848345501356 2.394141003279688 C-6.716427752933754 2.0133972105577738, -6.823295662002347 1.614560744215134, -6.893654271085454 1.215537243668521 C-6.9640128801685615 0.816513743121908, -6.999999999999999 0.4051790812228472, -7 1.0183126166254463e-14 C-7.000000000000001 -0.40517908122282686, -6.964012880168565 -0.8165137431218878, -6.893654271085459 -1.215537243668501 C-6.823295662002352 -1.6145607442151142, -6.716427752933759 -2.0133972105577542, -6.577848345501363 -2.394141003279669 C-6.439268938068967 -2.7748847960015834, -6.264767367102496 -3.149104622578972, -6.062177826491078 -3.4999999999999876 C-5.859588285879661 -3.8508953774210033, -5.6227551949470715 -4.1891280841669545, -5.362311101832856 -4.499513267805763 C-5.10186700871864 -4.809898451444571, -4.809898451444594 -5.10186700871862, -4.499513267805787 -5.362311101832836 C-4.189128084166979 -5.622755194947053, -3.850895377421028 -5.859588285879643, -3.5000000000000133 -6.062177826491062 C-3.1491046225789985 -6.264767367102482, -2.774884796001611 -6.439268938068954, -2.3941410032796973 -6.577848345501353 C-2.0133972105577835 -6.716427752933752, -1.6145607442151435 -6.823295662002345, -1.2155372436685306 -6.893654271085453 C-0.8165137431219176 -6.9640128801685615, -0.40517908122285695 -6.999999999999999, -1.9937625952807352e-14 -7 C0.4051790812228171 -7.000000000000001, 0.8165137431218781 -6.964012880168565, 1.2155372436684913 -6.89365427108546 C1.6145607442151044 -6.823295662002354, 2.013397210557745 -6.716427752933763, 2.3941410032796595 -6.5778483455013665 C2.774884796001574 -6.43926893806897, 3.149104622578963 -6.2647673671025, 3.499999999999979 -6.062177826491083 C3.8508953774209953 -5.859588285879665, 4.189128084166947 -5.622755194947077, 4.499513267805756 -5.362311101832862 C4.809898451444564 -5.1018670087186475, 5.101867008718613 -4.809898451444602, 5.362311101832829 -4.499513267805796 C5.622755194947046 -4.189128084166989, 5.859588285879637 -3.8508953774210393, 6.062177826491056 -3.500000000000025 C6.2647673671024755 -3.1491046225790105, 6.439268938068949 -2.774884796001623, 6.577848345501348 -2.3941410032797092 C6.716427752933747 -2.0133972105577955, 6.823295662002342 -1.6145607442151562, 6.893654271085451 -1.2155372436685434 C6.96401288016856 -0.8165137431219307, 6.982275711847575 -0.2025895406114567, 7 -3.2800750208310675e-14 C7.017724288152425 0.2025895406113911, 7.017724288152424 -0.2025895406114242, 7 0" stroke="none" stroke-width="0" fill="#fff4dd" style=""/><path d="M7 0 C7 0.40517908122283747, 6.964012880168563 0.816513743121899, 6.893654271085456 1.2155372436685123 C6.823295662002349 1.6145607442151257, 6.716427752933756 2.013397210557766, 6.5778483455013586 2.394141003279681 C6.439268938068961 2.7748847960015954, 6.26476736710249 3.149104622578984, 6.062177826491071 3.4999999999999996 C5.859588285879653 3.8508953774210153, 5.622755194947063 4.189128084166967, 5.362311101832846 4.499513267805774 C5.10186700871863 4.809898451444582, 4.809898451444583 5.10186700871863, 4.499513267805775 5.362311101832846 C4.189128084166968 5.622755194947063, 3.8508953774210166 5.859588285879652, 3.500000000000001 6.06217782649107 C3.149104622578985 6.264767367102489, 2.7748847960015963 6.439268938068961, 2.3941410032796817 6.5778483455013586 C2.013397210557767 6.716427752933756, 1.6145607442151264 6.823295662002349, 1.2155372436685128 6.893654271085456 C0.8165137431218992 6.964012880168563, 0.4051790812228379 7, 4.286263797015736e-16 7 C-0.405179081222837 7, -0.8165137431218985 6.964012880168563, -1.2155372436685121 6.893654271085456 C-1.6145607442151257 6.823295662002349, -2.0133972105577667 6.716427752933756, -2.394141003279681 6.5778483455013586 C-2.774884796001595 6.439268938068961, -3.149104622578983 6.26476736710249, -3.4999999999999982 6.062177826491071 C-3.8508953774210135 5.859588285879653, -4.189128084166966 5.6227551949470636, -4.499513267805773 5.362311101832848 C-4.809898451444581 5.101867008718632, -5.101867008718628 4.809898451444586, -5.3623111018328435 4.499513267805779 C-5.622755194947059 4.189128084166971, -5.859588285879649 3.8508953774210206, -6.062177826491068 3.5000000000000053 C-6.264767367102486 3.14910462257899, -6.439268938068958 2.774884796001602, -6.577848345501356 2.394141003279688 C-6.716427752933754 2.0133972105577738, -6.823295662002347 1.614560744215134, -6.893654271085454 1.215537243668521 C-6.9640128801685615 0.816513743121908, -6.999999999999999 0.4051790812228472, -7 1.0183126166254463e-14 C-7.000000000000001 -0.40517908122282686, -6.964012880168565 -0.8165137431218878, -6.893654271085459 -1.215537243668501 C-6.823295662002352 -1.6145607442151142, -6.716427752933759 -2.0133972105577542, -6.577848345501363 -2.394141003279669 C-6.439268938068967 -2.7748847960015834, -6.264767367102496 -3.149104622578972, -6.062177826491078 -3.4999999999999876 C-5.859588285879661 -3.8508953774210033, -5.6227551949470715 -4.1891280841669545, -5.362311101832856 -4.499513267805763 C-5.10186700871864 -4.809898451444571, -4.809898451444594 -5.10186700871862, -4.499513267805787 -5.362311101832836 C-4.189128084166979 -5.622755194947053, -3.850895377421028 -5.859588285879643, -3.5000000000000133 -6.062177826491062 C-3.1491046225789985 -6.264767367102482, -2.774884796001611 -6.439268938068954, -2.3941410032796973 -6.577848345501353 C-2.0133972105577835 -6.716427752933752, -1.6145607442151435 -6.823295662002345, -1.2155372436685306 -6.893654271085453 C-0.8165137431219176 -6.9640128801685615, -0.40517908122285695 -6.999999999999999, -1.9937625952807352e-14 -7 C0.4051790812228171 -7.000000000000001, 0.8165137431218781 -6.964012880168565, 1.2155372436684913 -6.89365427108546 C1.6145607442151044 -6.823295662002354, 2.013397210557745 -6.716427752933763, 2.3941410032796595 -6.5778483455013665 C2.774884796001574 -6.43926893806897, 3.149104622578963 -6.2647673671025, 3.499999999999979 -6.062177826491083 C3.8508953774209953 -5.859588285879665, 4.189128084166947 -5.622755194947077, 4.499513267805756 -5.362311101832862 C4.809898451444564 -5.1018670087186475, 5.101867008718613 -4.809898451444602, 5.362311101832829 -4.499513267805796 C5.622755194947046 -4.189128084166989, 5.859588285879637 -3.8508953774210393, 6.062177826491056 -3.500000000000025 C6.2647673671024755 -3.1491046225790105, 6.439268938068949 -2.774884796001623, 6.577848345501348 -2.3941410032797092 C6.716427752933747 -2.0133972105577955, 6.823295662002342 -1.6145607442151562, 6.893654271085451 -1.2155372436685434 C6.96401288016856 -0.8165137431219307, 6.982275711847575 -0.2025895406114567, 7 -3.2800750208310675e-14 C7.017724288152425 0.2025895406113911, 7.017724288152424 -0.2025895406114242, 7 0" stroke="#344054" stroke-width="2" fill="none" stroke-dasharray="0 0" style=""/><g><path d="M2.5 0 C2.5 0.14470681472244193, 2.487147457203058 0.29161205111496386, 2.46201938253052 0.4341204441673258 C2.436891307857982 0.5766288372196877, 2.3987241974763416 0.7190704323420595, 2.3492315519647713 0.8550503583141718 C2.299738906453201 0.991030284286284, 2.2374169168223177 1.124680222349637, 2.165063509461097 1.2499999999999998 C2.092710102099876 1.3753197776503625, 2.0081268553382365 1.496117172916774, 1.915111107797445 1.6069690242163481 C1.8220953602566536 1.7178208755159223, 1.7178208755159226 1.8220953602566536, 1.6069690242163484 1.915111107797445 C1.4961171729167742 2.0081268553382365, 1.375319777650363 2.0927101020998755, 1.2500000000000002 2.1650635094610964 C1.1246802223496375 2.2374169168223172, 0.9910302842862845 2.2997389064532, 0.8550503583141721 2.349231551964771 C0.7190704323420597 2.3987241974763416, 0.576628837219688 2.436891307857982, 0.43412044416732604 2.46201938253052 C0.291612051114964 2.487147457203058, 0.14470681472244212 2.5, 1.5308084989341916e-16 2.5 C-0.1447068147224418 2.5, -0.2916120511149638 2.487147457203058, -0.43412044416732576 2.46201938253052 C-0.5766288372196877 2.436891307857982, -0.7190704323420595 2.3987241974763416, -0.8550503583141718 2.3492315519647713 C-0.991030284286284 2.299738906453201, -1.124680222349637 2.2374169168223177, -1.2499999999999996 2.165063509461097 C-1.375319777650362 2.092710102099876, -1.4961171729167733 2.008126855338237, -1.6069690242163475 1.9151111077974459 C-1.7178208755159217 1.8220953602566548, -1.822095360256653 1.7178208755159234, -1.9151111077974443 1.6069690242163495 C-2.0081268553382357 1.4961171729167755, -2.0927101020998746 1.3753197776503645, -2.1650635094610955 1.250000000000002 C-2.2374169168223164 1.1246802223496395, -2.2997389064531992 0.9910302842862865, -2.34923155196477 0.8550503583141743 C-2.3987241974763407 0.7190704323420621, -2.436891307857981 0.5766288372196907, -2.4620193825305194 0.434120444167329 C-2.487147457203058 0.29161205111496724, -2.5 0.14470681472244545, -2.5 3.636830773662308e-15 C-2.5 -0.14470681472243818, -2.4871474572030587 -0.2916120511149599, -2.4620193825305208 -0.4341204441673218 C-2.436891307857983 -0.5766288372196837, -2.398724197476343 -0.7190704323420553, -2.3492315519647726 -0.8550503583141675 C-2.2997389064532023 -0.9910302842862798, -2.23741691682232 -1.1246802223496328, -2.165063509461099 -1.2499999999999956 C-2.092710102099878 -1.3753197776503583, -2.00812685533824 -1.4961171729167695, -1.9151111077974488 -1.606969024216344 C-1.8220953602566576 -1.7178208755159183, -1.7178208755159263 -1.82209536025665, -1.6069690242163523 -1.9151111077974416 C-1.4961171729167784 -2.0081268553382334, -1.3753197776503672 -2.0927101020998724, -1.2500000000000047 -2.1650635094610937 C-1.1246802223496422 -2.237416916822315, -0.9910302842862897 -2.299738906453198, -0.8550503583141776 -2.3492315519647686 C-0.7190704323420656 -2.3987241974763394, -0.5766288372196942 -2.4368913078579806, -0.43412044416733236 -2.462019382530519 C-0.29161205111497057 -2.4871474572030574, -0.1447068147224489 -2.4999999999999996, -7.120580697431198e-15 -2.5 C0.14470681472243463 -2.5000000000000004, 0.29161205111495647 -2.487147457203059, 0.4341204441673183 -2.4620193825305217 C0.5766288372196802 -2.436891307857984, 0.7190704323420518 -2.3987241974763442, 0.8550503583141642 -2.349231551964774 C0.9910302842862766 -2.2997389064532037, 1.1246802223496295 -2.2374169168223212, 1.2499999999999925 -2.165063509461101 C1.3753197776503554 -2.0927101020998804, 1.4961171729167668 -2.008126855338242, 1.6069690242163412 -1.915111107797451 C1.7178208755159157 -1.82209536025666, 1.8220953602566472 -1.7178208755159294, 1.915111107797439 -1.6069690242163557 C2.0081268553382308 -1.496117172916782, 2.09271010209987 -1.3753197776503712, 2.1650635094610915 -1.2500000000000089 C2.237416916822313 -1.1246802223496466, 2.299738906453196 -0.9910302842862939, 2.3492315519647673 -0.855050358314182 C2.3987241974763385 -0.71907043234207, 2.4368913078579792 -0.5766288372196986, 2.462019382530518 -0.4341204441673369 C2.487147457203057 -0.29161205111497523, 2.4936698970884197 -0.07235340736123454, 2.5 -1.1714553645825241e-14 C2.5063301029115803 0.07235340736121111, 2.50633010291158 -0.07235340736122292, 2.5 0" stroke="none" stroke-width="0" fill="hsl(40.5882352941, 60%, 83.3333333333%)" style=""/><path d="M2.5 0 C2.5 0.14470681472244193, 2.487147457203058 0.29161205111496386, 2.46201938253052 0.4341204441673258 C2.436891307857982 0.5766288372196877, 2.3987241974763416 0.7190704323420595, 2.3492315519647713 0.8550503583141718 C2.299738906453201 0.991030284286284, 2.2374169168223177 1.124680222349637, 2.165063509461097 1.2499999999999998 C2.092710102099876 1.3753197776503625, 2.0081268553382365 1.496117172916774, 1.915111107797445 1.6069690242163481 C1.8220953602566536 1.7178208755159223, 1.7178208755159226 1.8220953602566536, 1.6069690242163484 1.915111107797445 C1.4961171729167742 2.0081268553382365, 1.375319777650363 2.0927101020998755, 1.2500000000000002 2.1650635094610964 C1.1246802223496375 2.2374169168223172, 0.9910302842862845 2.2997389064532, 0.8550503583141721 2.349231551964771 C0.7190704323420597 2.3987241974763416, 0.576628837219688 2.436891307857982, 0.43412044416732604 2.46201938253052 C0.291612051114964 2.487147457203058, 0.14470681472244212 2.5, 1.5308084989341916e-16 2.5 C-0.1447068147224418 2.5, -0.2916120511149638 2.487147457203058, -0.43412044416732576 2.46201938253052 C-0.5766288372196877 2.436891307857982, -0.7190704323420595 2.3987241974763416, -0.8550503583141718 2.3492315519647713 C-0.991030284286284 2.299738906453201, -1.124680222349637 2.2374169168223177, -1.2499999999999996 2.165063509461097 C-1.375319777650362 2.092710102099876, -1.4961171729167733 2.008126855338237, -1.6069690242163475 1.9151111077974459 C-1.7178208755159217 1.8220953602566548, -1.822095360256653 1.7178208755159234, -1.9151111077974443 1.6069690242163495 C-2.0081268553382357 1.4961171729167755, -2.0927101020998746 1.3753197776503645, -2.1650635094610955 1.250000000000002 C-2.2374169168223164 1.1246802223496395, -2.2997389064531992 0.9910302842862865, -2.34923155196477 0.8550503583141743 C-2.3987241974763407 0.7190704323420621, -2.436891307857981 0.5766288372196907, -2.4620193825305194 0.434120444167329 C-2.487147457203058 0.29161205111496724, -2.5 0.14470681472244545, -2.5 3.636830773662308e-15 C-2.5 -0.14470681472243818, -2.4871474572030587 -0.2916120511149599, -2.4620193825305208 -0.4341204441673218 C-2.436891307857983 -0.5766288372196837, -2.398724197476343 -0.7190704323420553, -2.3492315519647726 -0.8550503583141675 C-2.2997389064532023 -0.9910302842862798, -2.23741691682232 -1.1246802223496328, -2.165063509461099 -1.2499999999999956 C-2.092710102099878 -1.3753197776503583, -2.00812685533824 -1.4961171729167695, -1.9151111077974488 -1.606969024216344 C-1.8220953602566576 -1.7178208755159183, -1.7178208755159263 -1.82209536025665, -1.6069690242163523 -1.9151111077974416 C-1.4961171729167784 -2.0081268553382334, -1.3753197776503672 -2.0927101020998724, -1.2500000000000047 -2.1650635094610937 C-1.1246802223496422 -2.237416916822315, -0.9910302842862897 -2.299738906453198, -0.8550503583141776 -2.3492315519647686 C-0.7190704323420656 -2.3987241974763394, -0.5766288372196942 -2.4368913078579806, -0.43412044416733236 -2.462019382530519 C-0.29161205111497057 -2.4871474572030574, -0.1447068147224489 -2.4999999999999996, -7.120580697431198e-15 -2.5 C0.14470681472243463 -2.5000000000000004, 0.29161205111495647 -2.487147457203059, 0.4341204441673183 -2.4620193825305217 C0.5766288372196802 -2.436891307857984, 0.7190704323420518 -2.3987241974763442, 0.8550503583141642 -2.349231551964774 C0.9910302842862766 -2.2997389064532037, 1.1246802223496295 -2.2374169168223212, 1.2499999999999925 -2.165063509461101 C1.3753197776503554 -2.0927101020998804, 1.4961171729167668 -2.008126855338242, 1.6069690242163412 -1.915111107797451 C1.7178208755159157 -1.82209536025666, 1.8220953602566472 -1.7178208755159294, 1.915111107797439 -1.6069690242163557 C2.0081268553382308 -1.496117172916782, 2.09271010209987 -1.3753197776503712, 2.1650635094610915 -1.2500000000000089 C2.237416916822313 -1.1246802223496466, 2.299738906453196 -0.9910302842862939, 2.3492315519647673 -0.855050358314182 C2.3987241974763385 -0.71907043234207, 2.4368913078579792 -0.5766288372196986, 2.462019382530518 -0.4341204441673369 C2.487147457203057 -0.29161205111497523, 2.4936698970884197 -0.07235340736123454, 2.5 -1.1714553645825241e-14 C2.5063301029115803 0.07235340736121111, 2.50633010291158 -0.07235340736122292, 2.5 0" stroke="hsl(40.5882352941, 60%, 83.3333333333%)" stroke-width="2" fill="none" stroke-dasharray="0 0" style=""/></g></g></g></g></g></g><defs><filter id="mermaid-0-drop-shadow" height="130%" width="130%"><feDropShadow dx="4" dy="4" stdDeviation="0" flood-opacity="0.06" flood-color="#000000"/></filter></defs><defs><filter id="mermaid-0-drop-shadow-small" height="150%" width="150%"><feDropShadow dx="2" dy="2" stdDeviation="0" flood-opacity="0.06" flood-color="#000000"/></filter></defs><linearGradient id="mermaid-0-gradient" gradientUnits="objectBoundingBox" x1="0%" y1="0%" x2="100%" y2="0%"><stop offset="0%" stop-color="hsl(40.5882352941, 60%, 83.3333333333%)" stop-opacity="1"/><stop offset="100%" stop-color="hsl(-79.4117647059, 60%, 83.3333333333%)" stop-opacity="1"/></linearGradient></svg>